<svg width="1280" height="1331" viewBox="0 0 1280 1331" fill="none" xmlns="http://www.w3.org/2000/svg">
<g id="green-ellipse" filter="url(#filter0_f_107_25)">
<path d="M1280 730.5C1280 713.362 1263.45 696.393 1231.28 680.56C1199.12 664.727 1151.98 650.341 1092.55 638.223C1033.12 626.105 962.566 616.492 884.917 609.934C807.269 603.375 724.046 600 640 600C555.954 600 472.731 603.375 395.083 609.934C317.434 616.492 246.881 626.105 187.452 638.223C128.022 650.341 80.8801 664.727 48.7171 680.56C16.5541 696.393 -7.34753e-06 713.363 0 730.5L640 730.5H1280Z" fill="#85FF4C"/>
</g>
<defs>
<filter id="filter0_f_107_25" x="-600" y="0" width="2480" height="1330.5" filterUnits="userSpaceOnUse" color-interpolation-filters="sRGB">
<feFlood flood-opacity="0" result="BackgroundImageFix"/>
<feBlend mode="normal" in="SourceGraphic" in2="BackgroundImageFix" result="shape"/>
<feGaussianBlur stdDeviation="300" result="effect1_foregroundBlur_107_25"/>
</filter>
</defs>
</svg>
